<mxfile modified="2021-11-10T10:57:52.629Z" host="app.diagrams.net" agent="5.0 (Windows NT 10.0; Win64; x64) AppleWebKit/537.36 (KHTML, like Gecko) Chrome/95.0.4638.54 Safari/537.36" etag="sWI_gxMnyBTb5RN35v1G" version="15.7.1" type="github">
  <diagram id="Ht1M8jgEwFfnCIfOTk4-" name="Page-1">
    <mxGraphModel dx="1265" dy="1398" grid="1" gridSize="10" guides="1" tooltips="1" connect="1" arrows="1" fold="1" page="1" pageScale="1" pageWidth="1169" pageHeight="827" math="0" shadow="0">
      <root>
        <mxCell id="0" />
        <mxCell id="1" parent="0" />
        <mxCell id="u5Yf7C0fCIXsTqFPnd00-14" value="" style="group" vertex="1" connectable="0" parent="1">
          <mxGeometry x="410" y="-760" width="90" height="108" as="geometry" />
        </mxCell>
        <mxCell id="u5Yf7C0fCIXsTqFPnd00-9" value="" style="sketch=0;points=[[0,0,0],[0.25,0,0],[0.5,0,0],[0.75,0,0],[1,0,0],[0,1,0],[0.25,1,0],[0.5,1,0],[0.75,1,0],[1,1,0],[0,0.25,0],[0,0.5,0],[0,0.75,0],[1,0.25,0],[1,0.5,0],[1,0.75,0]];outlineConnect=0;fontColor=#232F3E;gradientColor=#945DF2;gradientDirection=north;fillColor=#5A30B5;strokeColor=#ffffff;dashed=0;verticalLabelPosition=bottom;verticalAlign=top;align=center;html=1;fontSize=12;fontStyle=0;aspect=fixed;shape=mxgraph.aws4.resourceIcon;resIcon=mxgraph.aws4.analytics;" vertex="1" parent="u5Yf7C0fCIXsTqFPnd00-14">
          <mxGeometry x="6" width="78" height="78" as="geometry" />
        </mxCell>
        <mxCell id="u5Yf7C0fCIXsTqFPnd00-13" value="&lt;font color=&quot;#232f3e&quot;&gt;&lt;span style=&quot;background-color: rgb(255 , 255 , 255)&quot;&gt;大屏前端&lt;/span&gt;&lt;/font&gt;" style="text;html=1;align=center;verticalAlign=middle;resizable=0;points=[];autosize=1;strokeColor=none;fillColor=none;" vertex="1" parent="u5Yf7C0fCIXsTqFPnd00-14">
          <mxGeometry x="15" y="78" width="60" height="20" as="geometry" />
        </mxCell>
        <mxCell id="u5Yf7C0fCIXsTqFPnd00-62" style="edgeStyle=orthogonalEdgeStyle;rounded=0;orthogonalLoop=1;jettySize=auto;html=1;exitX=1;exitY=0.5;exitDx=0;exitDy=0;entryX=0;entryY=0.5;entryDx=0;entryDy=0;" edge="1" parent="1" source="u5Yf7C0fCIXsTqFPnd00-21" target="u5Yf7C0fCIXsTqFPnd00-49">
          <mxGeometry relative="1" as="geometry" />
        </mxCell>
        <mxCell id="u5Yf7C0fCIXsTqFPnd00-21" value="前端工程" style="fillColor=none;strokeColor=#DD3522;verticalAlign=top;fontStyle=0;fontColor=#DD3522;dashed=1;" vertex="1" parent="1">
          <mxGeometry x="377" y="-811" width="153" height="301" as="geometry" />
        </mxCell>
        <mxCell id="u5Yf7C0fCIXsTqFPnd00-22" value="" style="group" vertex="1" connectable="0" parent="1">
          <mxGeometry x="410" y="-640" width="90" height="98" as="geometry" />
        </mxCell>
        <mxCell id="u5Yf7C0fCIXsTqFPnd00-19" value="" style="sketch=0;points=[[0,0,0],[0.25,0,0],[0.5,0,0],[0.75,0,0],[1,0,0],[0,1,0],[0.25,1,0],[0.5,1,0],[0.75,1,0],[1,1,0],[0,0.25,0],[0,0.5,0],[0,0.75,0],[1,0.25,0],[1,0.5,0],[1,0.75,0]];outlineConnect=0;fontColor=#232F3E;gradientColor=#F54749;gradientDirection=north;fillColor=#C7131F;strokeColor=#ffffff;dashed=0;verticalLabelPosition=bottom;verticalAlign=top;align=center;html=1;fontSize=12;fontStyle=0;aspect=fixed;shape=mxgraph.aws4.resourceIcon;resIcon=mxgraph.aws4.mobile;" vertex="1" parent="u5Yf7C0fCIXsTqFPnd00-22">
          <mxGeometry x="6" width="78" height="78" as="geometry" />
        </mxCell>
        <mxCell id="u5Yf7C0fCIXsTqFPnd00-20" value="&lt;font color=&quot;#232f3e&quot;&gt;&lt;span style=&quot;background-color: rgb(255 , 255 , 255)&quot;&gt;蓝信驾驶舱H5&lt;/span&gt;&lt;/font&gt;" style="text;html=1;align=center;verticalAlign=middle;resizable=0;points=[];autosize=1;strokeColor=none;fillColor=none;" vertex="1" parent="u5Yf7C0fCIXsTqFPnd00-22">
          <mxGeometry y="78" width="90" height="20" as="geometry" />
        </mxCell>
        <mxCell id="u5Yf7C0fCIXsTqFPnd00-29" value="" style="group" vertex="1" connectable="0" parent="1">
          <mxGeometry x="630" y="-720" width="190" height="211" as="geometry" />
        </mxCell>
        <mxCell id="u5Yf7C0fCIXsTqFPnd00-27" value="" style="sketch=0;points=[[0,0,0],[0.25,0,0],[0.5,0,0],[0.75,0,0],[1,0,0],[0,1,0],[0.25,1,0],[0.5,1,0],[0.75,1,0],[1,1,0],[0,0.25,0],[0,0.5,0],[0,0.75,0],[1,0.25,0],[1,0.5,0],[1,0.75,0]];outlineConnect=0;fontColor=#232F3E;gradientColor=#4D72F3;gradientDirection=north;fillColor=#3334B9;strokeColor=#ffffff;dashed=0;verticalLabelPosition=bottom;verticalAlign=top;align=center;html=1;fontSize=12;fontStyle=0;aspect=fixed;shape=mxgraph.aws4.resourceIcon;resIcon=mxgraph.aws4.codebuild;" vertex="1" parent="u5Yf7C0fCIXsTqFPnd00-29">
          <mxGeometry width="78" height="78" as="geometry" />
        </mxCell>
        <mxCell id="u5Yf7C0fCIXsTqFPnd00-28" value="&lt;font color=&quot;#232f3e&quot;&gt;&lt;span style=&quot;background-color: rgb(255 , 255 , 255)&quot;&gt;后端服务&lt;/span&gt;&lt;/font&gt;" style="text;html=1;align=center;verticalAlign=middle;resizable=0;points=[];autosize=1;strokeColor=none;fillColor=none;" vertex="1" parent="u5Yf7C0fCIXsTqFPnd00-29">
          <mxGeometry x="9" y="78" width="60" height="20" as="geometry" />
        </mxCell>
        <mxCell id="u5Yf7C0fCIXsTqFPnd00-30" value="" style="sketch=0;points=[[0,0,0],[0.25,0,0],[0.5,0,0],[0.75,0,0],[1,0,0],[0,1,0],[0.25,1,0],[0.5,1,0],[0.75,1,0],[1,1,0],[0,0.25,0],[0,0.5,0],[0,0.75,0],[1,0.25,0],[1,0.5,0],[1,0.75,0]];outlineConnect=0;fontColor=#232F3E;gradientColor=#4D72F3;gradientDirection=north;fillColor=#3334B9;strokeColor=#ffffff;dashed=0;verticalLabelPosition=bottom;verticalAlign=top;align=center;html=1;fontSize=12;fontStyle=0;aspect=fixed;shape=mxgraph.aws4.resourceIcon;resIcon=mxgraph.aws4.rds;" vertex="1" parent="1">
          <mxGeometry x="920" y="-718" width="78" height="78" as="geometry" />
        </mxCell>
        <mxCell id="u5Yf7C0fCIXsTqFPnd00-31" value="大数据服务" style="text;html=1;align=center;verticalAlign=middle;resizable=0;points=[];autosize=1;strokeColor=none;fillColor=none;" vertex="1" parent="1">
          <mxGeometry x="920" y="-640" width="80" height="20" as="geometry" />
        </mxCell>
        <mxCell id="u5Yf7C0fCIXsTqFPnd00-44" value="" style="group" vertex="1" connectable="0" parent="1">
          <mxGeometry x="720" y="-780" width="80" height="70" as="geometry" />
        </mxCell>
        <mxCell id="u5Yf7C0fCIXsTqFPnd00-32" value="" style="sketch=0;points=[[0,0,0],[0.25,0,0],[0.5,0,0],[0.75,0,0],[1,0,0],[0,1,0],[0.25,1,0],[0.5,1,0],[0.75,1,0],[1,1,0],[0,0.25,0],[0,0.5,0],[0,0.75,0],[1,0.25,0],[1,0.5,0],[1,0.75,0]];outlineConnect=0;fontColor=#232F3E;gradientColor=#4D72F3;gradientDirection=north;fillColor=#3334B9;strokeColor=#ffffff;dashed=0;verticalLabelPosition=bottom;verticalAlign=top;align=center;html=1;fontSize=12;fontStyle=0;aspect=fixed;shape=mxgraph.aws4.resourceIcon;resIcon=mxgraph.aws4.support;" vertex="1" parent="u5Yf7C0fCIXsTqFPnd00-44">
          <mxGeometry x="15" width="50" height="50" as="geometry" />
        </mxCell>
        <mxCell id="u5Yf7C0fCIXsTqFPnd00-33" value="个性化配置" style="text;html=1;align=center;verticalAlign=middle;resizable=0;points=[];autosize=1;strokeColor=none;fillColor=none;" vertex="1" parent="u5Yf7C0fCIXsTqFPnd00-44">
          <mxGeometry y="50" width="80" height="20" as="geometry" />
        </mxCell>
        <mxCell id="u5Yf7C0fCIXsTqFPnd00-45" value="" style="group" vertex="1" connectable="0" parent="1">
          <mxGeometry x="730" y="-690" width="60" height="70" as="geometry" />
        </mxCell>
        <mxCell id="u5Yf7C0fCIXsTqFPnd00-38" value="" style="sketch=0;points=[[0,0,0],[0.25,0,0],[0.5,0,0],[0.75,0,0],[1,0,0],[0,1,0],[0.25,1,0],[0.5,1,0],[0.75,1,0],[1,1,0],[0,0.25,0],[0,0.5,0],[0,0.75,0],[1,0.25,0],[1,0.5,0],[1,0.75,0]];outlineConnect=0;fontColor=#232F3E;gradientColor=#945DF2;gradientDirection=north;fillColor=#5A30B5;strokeColor=#ffffff;dashed=0;verticalLabelPosition=bottom;verticalAlign=top;align=center;html=1;fontSize=12;fontStyle=0;aspect=fixed;shape=mxgraph.aws4.resourceIcon;resIcon=mxgraph.aws4.elasticsearch_service;" vertex="1" parent="u5Yf7C0fCIXsTqFPnd00-45">
          <mxGeometry x="5" width="50" height="50" as="geometry" />
        </mxCell>
        <mxCell id="u5Yf7C0fCIXsTqFPnd00-39" value="筛选查询" style="text;html=1;align=center;verticalAlign=middle;resizable=0;points=[];autosize=1;strokeColor=none;fillColor=none;" vertex="1" parent="u5Yf7C0fCIXsTqFPnd00-45">
          <mxGeometry y="50" width="60" height="20" as="geometry" />
        </mxCell>
        <mxCell id="u5Yf7C0fCIXsTqFPnd00-46" value="" style="group" vertex="1" connectable="0" parent="1">
          <mxGeometry x="730" y="-600" width="60" height="70" as="geometry" />
        </mxCell>
        <mxCell id="u5Yf7C0fCIXsTqFPnd00-40" value="" style="sketch=0;points=[[0,0,0],[0.25,0,0],[0.5,0,0],[0.75,0,0],[1,0,0],[0,1,0],[0.25,1,0],[0.5,1,0],[0.75,1,0],[1,1,0],[0,0.25,0],[0,0.5,0],[0,0.75,0],[1,0.25,0],[1,0.5,0],[1,0.75,0]];outlineConnect=0;fontColor=#232F3E;gradientColor=#945DF2;gradientDirection=north;fillColor=#5A30B5;strokeColor=#ffffff;dashed=0;verticalLabelPosition=bottom;verticalAlign=top;align=center;html=1;fontSize=12;fontStyle=0;aspect=fixed;shape=mxgraph.aws4.resourceIcon;resIcon=mxgraph.aws4.kinesis_data_analytics;" vertex="1" parent="u5Yf7C0fCIXsTqFPnd00-46">
          <mxGeometry x="5" width="50" height="50" as="geometry" />
        </mxCell>
        <mxCell id="u5Yf7C0fCIXsTqFPnd00-41" value="数据处理" style="text;html=1;align=center;verticalAlign=middle;resizable=0;points=[];autosize=1;strokeColor=none;fillColor=none;" vertex="1" parent="u5Yf7C0fCIXsTqFPnd00-46">
          <mxGeometry y="50" width="60" height="20" as="geometry" />
        </mxCell>
        <mxCell id="u5Yf7C0fCIXsTqFPnd00-47" value="" style="group" vertex="1" connectable="0" parent="1">
          <mxGeometry x="630" y="-600" width="60" height="70" as="geometry" />
        </mxCell>
        <mxCell id="u5Yf7C0fCIXsTqFPnd00-42" value="" style="sketch=0;points=[[0,0,0],[0.25,0,0],[0.5,0,0],[0.75,0,0],[1,0,0],[0,1,0],[0.25,1,0],[0.5,1,0],[0.75,1,0],[1,1,0],[0,0.25,0],[0,0.5,0],[0,0.75,0],[1,0.25,0],[1,0.5,0],[1,0.75,0]];outlineConnect=0;fontColor=#232F3E;gradientColor=#60A337;gradientDirection=north;fillColor=#277116;strokeColor=#ffffff;dashed=0;verticalLabelPosition=bottom;verticalAlign=top;align=center;html=1;fontSize=12;fontStyle=0;aspect=fixed;shape=mxgraph.aws4.resourceIcon;resIcon=mxgraph.aws4.cost_management;" vertex="1" parent="u5Yf7C0fCIXsTqFPnd00-47">
          <mxGeometry x="5" width="50" height="50" as="geometry" />
        </mxCell>
        <mxCell id="u5Yf7C0fCIXsTqFPnd00-43" value="报表导出" style="text;html=1;align=center;verticalAlign=middle;resizable=0;points=[];autosize=1;strokeColor=none;fillColor=none;" vertex="1" parent="u5Yf7C0fCIXsTqFPnd00-47">
          <mxGeometry y="50" width="60" height="20" as="geometry" />
        </mxCell>
        <mxCell id="u5Yf7C0fCIXsTqFPnd00-57" value="" style="edgeStyle=orthogonalEdgeStyle;html=1;endArrow=none;elbow=vertical;startArrow=block;startFill=1;strokeColor=#545B64;rounded=0;entryX=0;entryY=0.75;entryDx=0;entryDy=0;entryPerimeter=0;exitX=0;exitY=0.75;exitDx=0;exitDy=0;exitPerimeter=0;" edge="1" parent="1" source="u5Yf7C0fCIXsTqFPnd00-42" target="u5Yf7C0fCIXsTqFPnd00-27">
          <mxGeometry width="100" relative="1" as="geometry">
            <mxPoint x="580" y="-610" as="sourcePoint" />
            <mxPoint x="680" y="-610" as="targetPoint" />
          </mxGeometry>
        </mxCell>
        <mxCell id="u5Yf7C0fCIXsTqFPnd00-58" value="" style="edgeStyle=orthogonalEdgeStyle;html=1;endArrow=none;elbow=vertical;startArrow=block;startFill=1;strokeColor=#545B64;rounded=0;exitX=0;exitY=0.75;exitDx=0;exitDy=0;exitPerimeter=0;entryX=1.067;entryY=-0.18;entryDx=0;entryDy=0;entryPerimeter=0;" edge="1" parent="1" source="u5Yf7C0fCIXsTqFPnd00-40" target="u5Yf7C0fCIXsTqFPnd00-28">
          <mxGeometry width="100" relative="1" as="geometry">
            <mxPoint x="640" y="-530" as="sourcePoint" />
            <mxPoint x="740" y="-530" as="targetPoint" />
          </mxGeometry>
        </mxCell>
        <mxCell id="u5Yf7C0fCIXsTqFPnd00-59" value="" style="edgeStyle=orthogonalEdgeStyle;html=1;endArrow=block;elbow=vertical;startArrow=none;endFill=1;strokeColor=#545B64;rounded=0;entryX=0;entryY=0.5;entryDx=0;entryDy=0;entryPerimeter=0;" edge="1" parent="1" target="u5Yf7C0fCIXsTqFPnd00-38">
          <mxGeometry width="100" relative="1" as="geometry">
            <mxPoint x="710" y="-670" as="sourcePoint" />
            <mxPoint x="740" y="-530" as="targetPoint" />
          </mxGeometry>
        </mxCell>
        <mxCell id="u5Yf7C0fCIXsTqFPnd00-60" value="" style="edgeStyle=orthogonalEdgeStyle;html=1;endArrow=block;elbow=vertical;startArrow=none;endFill=1;strokeColor=#545B64;rounded=0;exitX=1;exitY=0.25;exitDx=0;exitDy=0;exitPerimeter=0;" edge="1" parent="1" source="u5Yf7C0fCIXsTqFPnd00-27" target="u5Yf7C0fCIXsTqFPnd00-32">
          <mxGeometry width="100" relative="1" as="geometry">
            <mxPoint x="640" y="-770" as="sourcePoint" />
            <mxPoint x="710" y="-760" as="targetPoint" />
          </mxGeometry>
        </mxCell>
        <mxCell id="u5Yf7C0fCIXsTqFPnd00-49" value="Security group" style="fillColor=none;strokeColor=#DD3522;verticalAlign=top;fontStyle=0;fontColor=#DD3522;dashed=1;" vertex="1" parent="1">
          <mxGeometry x="590" y="-811" width="250" height="301" as="geometry" />
        </mxCell>
        <mxCell id="u5Yf7C0fCIXsTqFPnd00-61" value="" style="edgeStyle=orthogonalEdgeStyle;html=1;endArrow=block;elbow=vertical;startArrow=none;endFill=1;strokeColor=#545B64;rounded=0;" edge="1" parent="1">
          <mxGeometry width="100" relative="1" as="geometry">
            <mxPoint x="840" y="-660" as="sourcePoint" />
            <mxPoint x="920" y="-660" as="targetPoint" />
          </mxGeometry>
        </mxCell>
        <mxCell id="u5Yf7C0fCIXsTqFPnd00-63" value="HTTP" style="text;html=1;align=center;verticalAlign=middle;resizable=0;points=[];autosize=1;strokeColor=none;fillColor=none;" vertex="1" parent="1">
          <mxGeometry x="534.5" y="-660" width="50" height="20" as="geometry" />
        </mxCell>
      </root>
    </mxGraphModel>
  </diagram>
</mxfile>
